<?xml version="1.0" encoding="UTF-8" standalone="no"?>
<svg width="522px" height="229px" viewBox="0 0 522 229" version="1.1" xmlns="http://www.w3.org/2000/svg" xmlns:xlink="http://www.w3.org/1999/xlink">
    <!-- Generator: Sketch 39.1 (31720) - http://www.bohemiancoding.com/sketch -->
    <title>illustration</title>
    <desc>Created with Sketch.</desc>
    <defs>
        <circle id="path-1" cx="3" cy="7" r="3"></circle>
        <mask id="mask-2" maskContentUnits="userSpaceOnUse" maskUnits="objectBoundingBox" x="0" y="0" width="6" height="6" fill="white">
            <use xlink:href="#path-1"></use>
        </mask>
        <path d="M16,4 C17.1045695,4 18,3.1045695 18,2 C18,0.8954305 17.1045695,0 16,0 C14.8954305,0 14,0.8954305 14,2 C14,3.1045695 14.8954305,4 16,4 Z" id="path-3"></path>
        <mask id="mask-4" maskContentUnits="userSpaceOnUse" maskUnits="objectBoundingBox" x="0" y="0" width="4" height="4" fill="white">
            <use xlink:href="#path-3"></use>
        </mask>
        <path d="M25.5,9 C26.8807119,9 28,7.88071187 28,6.5 C28,5.11928813 26.8807119,4 25.5,4 C24.1192881,4 23,5.11928813 23,6.5 C23,7.88071187 24.1192881,9 25.5,9 Z" id="path-5"></path>
        <mask id="mask-6" maskContentUnits="userSpaceOnUse" maskUnits="objectBoundingBox" x="0" y="0" width="5" height="5" fill="white">
            <use xlink:href="#path-5"></use>
        </mask>
        <path d="M55,7 C56.6568542,7 58,5.65685425 58,4 C58,2.34314575 56.6568542,1 55,1 C53.3431458,1 52,2.34314575 52,4 C52,5.65685425 53.3431458,7 55,7 Z" id="path-7"></path>
        <mask id="mask-8" maskContentUnits="userSpaceOnUse" maskUnits="objectBoundingBox" x="0" y="0" width="6" height="6" fill="white">
            <use xlink:href="#path-7"></use>
        </mask>
        <path d="M55.5,17 C56.8807119,17 58,15.8807119 58,14.5 C58,13.1192881 56.8807119,12 55.5,12 C54.1192881,12 53,13.1192881 53,14.5 C53,15.8807119 54.1192881,17 55.5,17 Z" id="path-9"></path>
        <mask id="mask-10" maskContentUnits="userSpaceOnUse" maskUnits="objectBoundingBox" x="0" y="0" width="5" height="5" fill="white">
            <use xlink:href="#path-9"></use>
        </mask>
        <path d="M40,19 C41.1045695,19 42,18.1045695 42,17 C42,15.8954305 41.1045695,15 40,15 C38.8954305,15 38,15.8954305 38,17 C38,18.1045695 38.8954305,19 40,19 Z" id="path-11"></path>
        <mask id="mask-12" maskContentUnits="userSpaceOnUse" maskUnits="objectBoundingBox" x="0" y="0" width="4" height="4" fill="white">
            <use xlink:href="#path-11"></use>
        </mask>
        <path d="M35.5,10 C36.3284271,10 37,9.32842712 37,8.5 C37,7.67157288 36.3284271,7 35.5,7 C34.6715729,7 34,7.67157288 34,8.5 C34,9.32842712 34.6715729,10 35.5,10 Z" id="path-13"></path>
        <mask id="mask-14" maskContentUnits="userSpaceOnUse" maskUnits="objectBoundingBox" x="0" y="0" width="3" height="3" fill="white">
            <use xlink:href="#path-13"></use>
        </mask>
        <circle id="path-15" cx="3" cy="7" r="3"></circle>
        <mask id="mask-16" maskContentUnits="userSpaceOnUse" maskUnits="objectBoundingBox" x="0" y="0" width="6" height="6" fill="white">
            <use xlink:href="#path-15"></use>
        </mask>
        <path d="M16,4 C17.1045695,4 18,3.1045695 18,2 C18,0.8954305 17.1045695,0 16,0 C14.8954305,0 14,0.8954305 14,2 C14,3.1045695 14.8954305,4 16,4 Z" id="path-17"></path>
        <mask id="mask-18" maskContentUnits="userSpaceOnUse" maskUnits="objectBoundingBox" x="0" y="0" width="4" height="4" fill="white">
            <use xlink:href="#path-17"></use>
        </mask>
        <path d="M25.5,9 C26.8807119,9 28,7.88071187 28,6.5 C28,5.11928813 26.8807119,4 25.5,4 C24.1192881,4 23,5.11928813 23,6.5 C23,7.88071187 24.1192881,9 25.5,9 Z" id="path-19"></path>
        <mask id="mask-20" maskContentUnits="userSpaceOnUse" maskUnits="objectBoundingBox" x="0" y="0" width="5" height="5" fill="white">
            <use xlink:href="#path-19"></use>
        </mask>
        <path d="M55,7 C56.6568542,7 58,5.65685425 58,4 C58,2.34314575 56.6568542,1 55,1 C53.3431458,1 52,2.34314575 52,4 C52,5.65685425 53.3431458,7 55,7 Z" id="path-21"></path>
        <mask id="mask-22" maskContentUnits="userSpaceOnUse" maskUnits="objectBoundingBox" x="0" y="0" width="6" height="6" fill="white">
            <use xlink:href="#path-21"></use>
        </mask>
        <path d="M55.5,17 C56.8807119,17 58,15.8807119 58,14.5 C58,13.1192881 56.8807119,12 55.5,12 C54.1192881,12 53,13.1192881 53,14.5 C53,15.8807119 54.1192881,17 55.5,17 Z" id="path-23"></path>
        <mask id="mask-24" maskContentUnits="userSpaceOnUse" maskUnits="objectBoundingBox" x="0" y="0" width="5" height="5" fill="white">
            <use xlink:href="#path-23"></use>
        </mask>
        <path d="M40,19 C41.1045695,19 42,18.1045695 42,17 C42,15.8954305 41.1045695,15 40,15 C38.8954305,15 38,15.8954305 38,17 C38,18.1045695 38.8954305,19 40,19 Z" id="path-25"></path>
        <mask id="mask-26" maskContentUnits="userSpaceOnUse" maskUnits="objectBoundingBox" x="0" y="0" width="4" height="4" fill="white">
            <use xlink:href="#path-25"></use>
        </mask>
        <path d="M35.5,10 C36.3284271,10 37,9.32842712 37,8.5 C37,7.67157288 36.3284271,7 35.5,7 C34.6715729,7 34,7.67157288 34,8.5 C34,9.32842712 34.6715729,10 35.5,10 Z" id="path-27"></path>
        <mask id="mask-28" maskContentUnits="userSpaceOnUse" maskUnits="objectBoundingBox" x="0" y="0" width="3" height="3" fill="white">
            <use xlink:href="#path-27"></use>
        </mask>
    </defs>
    <g id="Page-1" stroke="none" stroke-width="1" fill="none" fill-rule="evenodd">
        <g id="404" transform="translate(-379.000000, -212.000000)">
            <g id="main-card" transform="translate(215.000000, 100.000000)">
                <g id="illustration" transform="translate(164.000000, 112.000000)">
                    <circle id="Oval-6" fill="#757575" cx="363.5" cy="157.5" r="0.5"></circle>
                    <path d="M379,74.2162162 C379.778378,74.2162162 380.72973,75.2 380.72973,76 L381.162162,76 C381.162162,75.2 382.113514,74.2162162 382.891892,74.2162162 L382.891892,73.7837838 C382.113514,73.7837838 381.162162,72.8 381.162162,72 L380.72973,72 C380.72973,72.8 379.778378,73.7837838 379,73.7837838 L379,74.2162162 L379,74.2162162 Z M380.945946,72.8324324 C381.194595,73.3189189 381.627027,73.7513514 382.091892,74.0108108 C381.616216,74.2594595 381.183784,74.7027027 380.945946,75.1891892 C380.697297,74.7027027 380.264865,74.2702703 379.8,74.0108108 C380.264865,73.7513514 380.697297,73.3189189 380.945946,72.8324324 L380.945946,72.8324324 Z" id="Shape" fill="#757575"></path>
                    <path d="M364,65.7702703 C364.972973,65.7702703 366.162162,67 366.162162,68 L366.702703,68 C366.702703,67 367.891892,65.7702703 368.864865,65.7702703 L368.864865,65.2297297 C367.891892,65.2297297 366.702703,64 366.702703,63 L366.162162,63 C366.162162,64 364.972973,65.2297297 364,65.2297297 L364,65.7702703 L364,65.7702703 Z M366.432432,64.0405405 C366.743243,64.6486486 367.283784,65.1891892 367.864865,65.5135135 C367.27027,65.8243243 366.72973,66.3783784 366.432432,66.9864865 C366.121622,66.3783784 365.581081,65.8378378 365,65.5135135 C365.581081,65.1891892 366.121622,64.6486486 366.432432,64.0405405 L366.432432,64.0405405 Z" id="Shape" fill="#757575"></path>
                    <path d="M395,53.3243243 C396.167568,53.3243243 397.594595,54.8 397.594595,56 L398.243243,56 C398.243243,54.8 399.67027,53.3243243 400.837838,53.3243243 L400.837838,52.6756757 C399.67027,52.6756757 398.243243,51.2 398.243243,50 L397.594595,50 C397.594595,51.2 396.167568,52.6756757 395,52.6756757 L395,53.3243243 L395,53.3243243 Z M397.918919,51.2486486 C398.291892,51.9783784 398.940541,52.627027 399.637838,53.0162162 C398.924324,53.3891892 398.275676,54.0540541 397.918919,54.7837838 C397.545946,54.0540541 396.897297,53.4054054 396.2,53.0162162 C396.897297,52.627027 397.545946,51.9783784 397.918919,51.2486486 L397.918919,51.2486486 Z" id="Shape" fill="#757575"></path>
                    <path d="M487,75.2162162 C487.778378,75.2162162 488.72973,76.2 488.72973,77 L489.162162,77 C489.162162,76.2 490.113514,75.2162162 490.891892,75.2162162 L490.891892,74.7837838 C490.113514,74.7837838 489.162162,73.8 489.162162,73 L488.72973,73 C488.72973,73.8 487.778378,74.7837838 487,74.7837838 L487,75.2162162 L487,75.2162162 Z M488.945946,73.8324324 C489.194595,74.3189189 489.627027,74.7513514 490.091892,75.0108108 C489.616216,75.2594595 489.183784,75.7027027 488.945946,76.1891892 C488.697297,75.7027027 488.264865,75.2702703 487.8,75.0108108 C488.264865,74.7513514 488.697297,74.3189189 488.945946,73.8324324 L488.945946,73.8324324 Z" id="Shape" fill="#757575"></path>
                    <g id="stars" transform="translate(393.000000, 202.000000)" fill="#757575">
                        <g id="Group">
                            <g id="Shape">
                                <path d="M2.29166667,5 L2.70833333,5 C2.70833333,3.96875 3.96875,2.70833333 5,2.70833333 L5,2.29166667 C3.96875,2.29166667 2.70833333,1.03125 2.70833333,0 L2.29166667,0 C2.29166667,1.03125 1.03125,2.29166667 0,2.29166667 L0,2.70833333 C1.03125,2.70833333 2.29166667,3.96875 2.29166667,5 L2.29166667,5 Z M2.5,0.875 C2.8125,1.5625 3.4375,2.1875 4.125,2.5 C3.4375,2.8125 2.8125,3.4375 2.5,4.125 C2.1875,3.4375 1.5625,2.8125 0.875,2.5 C1.5625,2.1875 2.1875,1.5625 2.5,0.875 L2.5,0.875 Z"></path>
                                <path d="M5.8974359,6.81150381 C7.06500347,6.81150381 8.49203049,8.28717949 8.49203049,9.48717949 L9.14067914,9.48717949 C9.14067914,8.28717949 10.5677062,6.81150381 11.7352737,6.81150381 L11.7352737,6.16285516 C10.5677062,6.16285516 9.14067914,4.68717949 9.14067914,3.48717949 L8.49203049,3.48717949 C8.49203049,4.68717949 7.06500347,6.16285516 5.8974359,6.16285516 L5.8974359,6.81150381 L5.8974359,6.81150381 Z M8.81635482,4.73582814 C9.18932779,5.46555787 9.83797644,6.11420651 10.5352737,6.5033957 C9.82176022,6.87636868 9.17311157,7.54123354 8.81635482,8.27096327 C8.44338184,7.54123354 7.79473319,6.89258489 7.0974359,6.5033957 C7.79473319,6.11420651 8.44338184,5.46555787 8.81635482,4.73582814 L8.81635482,4.73582814 Z"></path>
                                <path d="M5.05494505,13.974359 C5.05494505,13.2029304 5.9978022,12.2600733 6.76923077,12.2600733 L6.76923077,11.6886447 C5.9978022,11.6886447 5.05494505,10.7457875 5.05494505,9.97435897 L4.48351648,9.97435897 C4.48351648,10.7457875 3.54065934,11.6886447 2.76923077,11.6886447 L2.76923077,12.2600733 C3.54065934,12.2600733 4.48351648,13.2029304 4.48351648,13.974359 L5.05494505,13.974359 L5.05494505,13.974359 Z M3.74065934,11.974359 C4.15494505,11.7315018 4.52637363,11.3600733 4.76923077,10.9457875 C5.01208791,11.3600733 5.38351648,11.7315018 5.7978022,11.974359 C5.38351648,12.2172161 5.01208791,12.5886447 4.76923077,13.0029304 C4.52637363,12.5886447 4.15494505,12.2172161 3.74065934,11.974359 L3.74065934,11.974359 Z"></path>
                            </g>
                        </g>
                    </g>
                    <g id="stars" transform="translate(35.445946, 59.000000)" fill="#757575">
                        <g id="Group">
                            <g id="Shape">
                                <path d="M1.83333333,4 L2.16666667,4 C2.16666667,3.175 3.175,2.16666667 4,2.16666667 L4,1.83333333 C3.175,1.83333333 2.16666667,0.825 2.16666667,0 L1.83333333,0 C1.83333333,0.825 0.825,1.83333333 0,1.83333333 L0,2.16666667 C0.825,2.16666667 1.83333333,3.175 1.83333333,4 L1.83333333,4 Z M2,0.7 C2.25,1.25 2.75,1.75 3.3,2 C2.75,2.25 2.25,2.75 2,3.3 C1.75,2.75 1.25,2.25 0.7,2 C1.25,1.75 1.75,1.25 2,0.7 L2,0.7 Z"></path>
                                <path d="M5.8974359,5.81150381 C7.06500347,5.81150381 8.49203049,7.28717949 8.49203049,8.48717949 L9.14067914,8.48717949 C9.14067914,7.28717949 10.5677062,5.81150381 11.7352737,5.81150381 L11.7352737,5.16285516 C10.5677062,5.16285516 9.14067914,3.68717949 9.14067914,2.48717949 L8.49203049,2.48717949 C8.49203049,3.68717949 7.06500347,5.16285516 5.8974359,5.16285516 L5.8974359,5.81150381 L5.8974359,5.81150381 Z M8.81635482,3.73582814 C9.18932779,4.46555787 9.83797644,5.11420651 10.5352737,5.5033957 C9.82176022,5.87636868 9.17311157,6.54123354 8.81635482,7.27096327 C8.44338184,6.54123354 7.79473319,5.89258489 7.0974359,5.5033957 C7.79473319,5.11420651 8.44338184,4.46555787 8.81635482,3.73582814 L8.81635482,3.73582814 Z"></path>
                                <path d="M5.05494505,13.974359 C5.05494505,13.2029304 5.9978022,12.2600733 6.76923077,12.2600733 L6.76923077,11.6886447 C5.9978022,11.6886447 5.05494505,10.7457875 5.05494505,9.97435897 L4.48351648,9.97435897 C4.48351648,10.7457875 3.54065934,11.6886447 2.76923077,11.6886447 L2.76923077,12.2600733 C3.54065934,12.2600733 4.48351648,13.2029304 4.48351648,13.974359 L5.05494505,13.974359 L5.05494505,13.974359 Z M3.74065934,11.974359 C4.15494505,11.7315018 4.52637363,11.3600733 4.76923077,10.9457875 C5.01208791,11.3600733 5.38351648,11.7315018 5.7978022,11.974359 C5.38351648,12.2172161 5.01208791,12.5886447 4.76923077,13.0029304 C4.52637363,12.5886447 4.15494505,12.2172161 3.74065934,11.974359 L3.74065934,11.974359 Z"></path>
                            </g>
                        </g>
                    </g>
                    <g id="stars" transform="translate(507.000000, 216.000000)" fill="#757575">
                        <g id="Group">
                            <g id="Shape">
                                <path d="M2.29166667,8 L2.70833333,8 C2.70833333,6.96875 3.96875,5.70833333 5,5.70833333 L5,5.29166667 C3.96875,5.29166667 2.70833333,4.03125 2.70833333,3 L2.29166667,3 C2.29166667,4.03125 1.03125,5.29166667 0,5.29166667 L0,5.70833333 C1.03125,5.70833333 2.29166667,6.96875 2.29166667,8 L2.29166667,8 Z M2.5,3.875 C2.8125,4.5625 3.4375,5.1875 4.125,5.5 C3.4375,5.8125 2.8125,6.4375 2.5,7.125 C2.1875,6.4375 1.5625,5.8125 0.875,5.5 C1.5625,5.1875 2.1875,4.5625 2.5,3.875 L2.5,3.875 Z"></path>
                                <path d="M6.8974359,2.7033957 C7.67581428,2.7033957 8.62716563,3.68717949 8.62716563,4.48717949 L9.05959806,4.48717949 C9.05959806,3.68717949 10.0109494,2.7033957 10.7893278,2.7033957 L10.7893278,2.27096327 C10.0109494,2.27096327 9.05959806,1.28717949 9.05959806,0.487179487 L8.62716563,0.487179487 C8.62716563,1.28717949 7.67581428,2.27096327 6.8974359,2.27096327 L6.8974359,2.7033957 L6.8974359,2.7033957 Z M8.84338184,1.31961192 C9.09203049,1.80609841 9.52446292,2.23853084 9.98932779,2.4979903 C9.51365211,2.74663895 9.08121968,3.18988219 8.84338184,3.67636868 C8.59473319,3.18988219 8.16230076,2.75744976 7.6974359,2.4979903 C8.16230076,2.23853084 8.59473319,1.80609841 8.84338184,1.31961192 L8.84338184,1.31961192 Z"></path>
                                <path d="M6.48351648,12.974359 C6.48351648,12.3957875 7.19065934,11.6886447 7.76923077,11.6886447 L7.76923077,11.2600733 C7.19065934,11.2600733 6.48351648,10.5529304 6.48351648,9.97435897 L6.05494505,9.97435897 C6.05494505,10.5529304 5.3478022,11.2600733 4.76923077,11.2600733 L4.76923077,11.6886447 C5.3478022,11.6886447 6.05494505,12.3957875 6.05494505,12.974359 L6.48351648,12.974359 L6.48351648,12.974359 Z M5.4978022,11.474359 C5.80851648,11.2922161 6.08708791,11.0136447 6.26923077,10.7029304 C6.45137363,11.0136447 6.72994505,11.2922161 7.04065934,11.474359 C6.72994505,11.6565018 6.45137363,11.9350733 6.26923077,12.2457875 C6.08708791,11.9350733 5.80851648,11.6565018 5.4978022,11.474359 L5.4978022,11.474359 Z"></path>
                            </g>
                        </g>
                    </g>
                    <g id="stars" transform="translate(136.000000, 201.000000)" fill="#757575">
                        <g id="Group">
                            <g id="Shape">
                                <path d="M2.29166667,8 L2.70833333,8 C2.70833333,6.96875 3.96875,5.70833333 5,5.70833333 L5,5.29166667 C3.96875,5.29166667 2.70833333,4.03125 2.70833333,3 L2.29166667,3 C2.29166667,4.03125 1.03125,5.29166667 0,5.29166667 L0,5.70833333 C1.03125,5.70833333 2.29166667,6.96875 2.29166667,8 L2.29166667,8 Z M2.5,3.875 C2.8125,4.5625 3.4375,5.1875 4.125,5.5 C3.4375,5.8125 2.8125,6.4375 2.5,7.125 C2.1875,6.4375 1.5625,5.8125 0.875,5.5 C1.5625,5.1875 2.1875,4.5625 2.5,3.875 L2.5,3.875 Z"></path>
                                <path d="M6.8974359,2.7033957 C7.67581428,2.7033957 8.62716563,3.68717949 8.62716563,4.48717949 L9.05959806,4.48717949 C9.05959806,3.68717949 10.0109494,2.7033957 10.7893278,2.7033957 L10.7893278,2.27096327 C10.0109494,2.27096327 9.05959806,1.28717949 9.05959806,0.487179487 L8.62716563,0.487179487 C8.62716563,1.28717949 7.67581428,2.27096327 6.8974359,2.27096327 L6.8974359,2.7033957 L6.8974359,2.7033957 Z M8.84338184,1.31961192 C9.09203049,1.80609841 9.52446292,2.23853084 9.98932779,2.4979903 C9.51365211,2.74663895 9.08121968,3.18988219 8.84338184,3.67636868 C8.59473319,3.18988219 8.16230076,2.75744976 7.6974359,2.4979903 C8.16230076,2.23853084 8.59473319,1.80609841 8.84338184,1.31961192 L8.84338184,1.31961192 Z"></path>
                                <path d="M6.48351648,12.974359 C6.48351648,12.3957875 7.19065934,11.6886447 7.76923077,11.6886447 L7.76923077,11.2600733 C7.19065934,11.2600733 6.48351648,10.5529304 6.48351648,9.97435897 L6.05494505,9.97435897 C6.05494505,10.5529304 5.3478022,11.2600733 4.76923077,11.2600733 L4.76923077,11.6886447 C5.3478022,11.6886447 6.05494505,12.3957875 6.05494505,12.974359 L6.48351648,12.974359 L6.48351648,12.974359 Z M5.4978022,11.474359 C5.80851648,11.2922161 6.08708791,11.0136447 6.26923077,10.7029304 C6.45137363,11.0136447 6.72994505,11.2922161 7.04065934,11.474359 C6.72994505,11.6565018 6.45137363,11.9350733 6.26923077,12.2457875 C6.08708791,11.9350733 5.80851648,11.6565018 5.4978022,11.474359 L5.4978022,11.474359 Z"></path>
                            </g>
                        </g>
                    </g>
                    <g id="satellite" transform="translate(79.500000, 124.500000) rotate(270.000000) translate(-79.500000, -124.500000) translate(66.000000, 111.000000)" fill="#949494">
                        <g id="Group" transform="translate(-0.000000, 0.000000)">
                            <g id="Shape">
                                <path d="M10.8600612,22.4623469 C9.57397959,22.4623469 7.85755102,21.544898 6.38081633,20.0681633 C5.39834694,19.0856939 4.64620408,17.9781429 4.26269388,16.9493878 C3.82683673,15.7795714 3.90893878,14.8125306 4.49467347,14.2273469 C4.82693878,13.8945306 5.29806122,13.7193061 5.85679592,13.7193061 C7.14287755,13.7193061 8.85930612,14.6367551 10.3360408,16.1134898 C11.3185102,17.0959592 12.0706531,18.2035102 12.4541633,19.2322653 C12.8900204,20.4020816 12.8079184,21.3691224 12.2221837,21.9543061 C11.8899184,22.2865714 11.4187959,22.4623469 10.8600612,22.4623469 L10.8600612,22.4623469 Z M5.85734694,14.8207959 C5.59340816,14.8207959 5.39779592,14.8830612 5.27436735,15.0059388 C5.0192449,15.2610612 5.02695918,15.8440408 5.29585714,16.5642245 C5.62481633,17.4480612 6.28714286,18.415102 7.1605102,19.2884694 C8.5915102,20.7194694 10.0500612,21.3597551 10.8606122,21.3597551 C11.124551,21.3597551 11.3201633,21.2974898 11.4435918,21.1746122 C11.6987143,20.9194898 11.691,20.3365102 11.422102,19.6163265 C11.0931429,18.7324898 10.4308163,17.765449 9.55744898,16.8920816 C8.12644898,15.4616327 6.66789796,14.8207959 5.85734694,14.8207959 L5.85734694,14.8207959 Z"></path>
                                <path d="M14.2427755,17.7290816 C14.1017143,17.7290816 13.9606531,17.6750816 13.8532041,17.5676327 C13.6377551,17.3521837 13.6377551,17.0039388 13.8532041,16.7884898 L13.8532041,16.7884898 C14.0146531,16.6270408 14.0174082,16.2380204 13.8598163,15.7729592 C13.6542857,15.1651837 13.1974898,14.4780612 12.6073469,13.8879184 C11.6617959,12.9418163 10.6710612,12.5186327 10.1090204,12.5186327 C9.98173469,12.5186327 9.80871429,12.5401224 9.70732653,12.6420612 C9.49297959,12.8569592 9.14583673,12.8575102 8.92983673,12.6442653 L8.88410204,12.5990816 C8.77995918,12.4954898 8.721,12.3555306 8.72044898,12.2089592 C8.71989796,12.0623878 8.7777551,11.9213265 8.88189796,11.8177347 L13.1093265,7.59030612 C13.1897755,7.50985714 13.2928163,7.45695918 13.4030204,7.43712245 C13.662551,7.27402041 13.9793878,7.18916327 14.336449,7.18916327 C15.3139592,7.18916327 16.5702857,7.83771429 17.6133673,8.88134694 C18.3302449,9.59767347 18.8685918,10.4186939 19.1308776,11.1923265 C19.4366939,12.096551 19.3402653,12.8597143 18.8586735,13.3407551 L14.634551,17.5654286 C14.634,17.5659796 14.633449,17.5670816 14.6323469,17.5676327 C14.5243469,17.6750816 14.3838367,17.7290816 14.2427755,17.7290816 L14.2427755,17.7290816 Z M10.7575714,11.5003469 C11.6055918,11.7069796 12.5621633,12.284449 13.3864898,13.1087755 C14.1022653,13.825102 14.6417143,14.6455714 14.903449,15.4192041 C14.931551,15.5018571 14.9563469,15.5834082 14.9772857,15.6633061 L18.0795306,12.5610612 C18.2415306,12.3990612 18.2442857,12.0100408 18.0872449,11.5449796 C17.8817143,10.9372041 17.4249184,10.2500816 16.8347755,9.65993878 C15.5762449,8.40140816 14.2642653,8.08291837 13.933102,8.41463265 C13.8691837,8.47855102 13.7909388,8.52538776 13.7060816,8.55183673 L10.7575714,11.5003469 L10.7575714,11.5003469 Z"></path>
                                <path d="M8.32977551,15.4362857 C8.18871429,15.4362857 8.04765306,15.3822857 7.94020408,15.2748367 C7.7247551,15.0593878 7.7247551,14.7111429 7.94020408,14.4956939 L10.5377143,11.8976327 C10.7531633,11.6821837 11.1014082,11.6821837 11.3168571,11.8976327 C11.5323061,12.1125306 11.5323061,12.4613265 11.3168571,12.6767755 L8.71934694,15.2748367 C8.61189796,15.3822857 8.47083673,15.4362857 8.32977551,15.4362857 L8.32977551,15.4362857 Z"></path>
                                <path d="M11.5637143,18.6713265 C11.4226531,18.6713265 11.2815918,18.6173265 11.1741429,18.5098776 C10.9586939,18.2944286 10.9586939,17.9461837 11.1741429,17.7307347 L13.7722041,15.1326735 C13.9876531,14.9172245 14.335898,14.9172245 14.5513469,15.1326735 C14.7667959,15.3481224 14.7667959,15.6963673 14.5513469,15.9118163 L11.9532857,18.5098776 C11.8458367,18.6173265 11.7047755,18.6713265 11.5637143,18.6713265 L11.5637143,18.6713265 Z"></path>
                                <path d="M5.39834694,21.601102 C5.25728571,21.601102 5.11622449,21.547102 5.00822449,21.4396531 C4.79332653,21.2242041 4.79332653,20.8754082 5.00822449,20.6605102 L7.47734694,18.1930408 C7.69279592,17.9775918 8.04159184,17.9775918 8.25704082,18.1930408 C8.47193878,18.4084898 8.47193878,18.7572857 8.25704082,18.9721837 L5.78791837,21.4396531 C5.68046939,21.547102 5.53940816,21.601102 5.39834694,21.601102 L5.39834694,21.601102 Z"></path>
                                <path d="M6.5312449,24.3066122 C5.43912245,24.3066122 4.31944898,23.8255714 3.47142857,22.977 C2.71212245,22.2171429 2.24540816,21.249551 2.15779592,20.2522041 C2.13134694,19.9485918 2.35506122,19.6813469 2.65867347,19.654898 C2.96559184,19.629551 3.22897959,19.8521633 3.25542857,20.1552245 C3.32044898,20.8957959 3.67420408,21.6209388 4.25112245,22.1978571 C4.96689796,22.9141837 5.91906122,23.2861224 6.80179592,23.1907959 C7.10155102,23.1577347 7.37595918,23.3764898 7.40846939,23.680102 C7.44097959,23.9826122 7.22222449,24.2542653 6.91971429,24.2867755 C6.79077551,24.300551 6.66073469,24.3066122 6.5312449,24.3066122 L6.5312449,24.3066122 Z"></path>
                                <path d="M5.88434694,26.4506327 C4.38446939,26.4506327 2.89561224,25.8268776 1.75940816,24.6906735 C0.592897959,23.5236122 -0.0473877551,21.9526531 0.00275510204,20.3811429 C0.0126734694,20.0769796 0.276061224,19.819102 0.570857143,19.8483061 C0.875020408,19.8582245 1.11361224,20.1122449 1.1042449,20.4164082 C1.06402041,21.6848571 1.58638776,22.9588163 2.53910204,23.9115306 C3.66759184,25.0405714 5.21210204,25.5508163 6.67065306,25.2764082 C6.96985714,25.2207551 7.2574898,25.4169184 7.3142449,25.7155714 C7.37044898,26.0147755 7.17373469,26.3029592 6.87453061,26.3591633 C6.54612245,26.4203265 6.21495918,26.4506327 5.88434694,26.4506327 L5.88434694,26.4506327 Z"></path>
                                <path d="M8.8234898,11.2286939 C8.68242857,11.2286939 8.54136735,11.1746939 8.43391837,11.0672449 L2.12859184,4.76191837 C2.02555102,4.65887755 1.96714286,4.51836735 1.96714286,4.37234694 C1.96714286,4.22632653 2.025,4.08581633 2.12859184,3.98277551 L5.94991837,0.16144898 C6.16536735,-0.054 6.51361224,-0.054 6.72906122,0.16144898 L13.0343878,6.46677551 C13.1379796,6.57036735 13.1958367,6.71032653 13.1958367,6.85634694 C13.1958367,7.00236735 13.1379796,7.14287755 13.0343878,7.24591837 L9.2125102,11.0672449 C9.10561224,11.1746939 8.96455102,11.2286939 8.8234898,11.2286939 L8.8234898,11.2286939 Z M3.29730612,4.37234694 L8.8234898,9.89853061 L11.8656735,6.85634694 L6.3394898,1.33016327 L3.29730612,4.37234694 L3.29730612,4.37234694 Z"></path>
                                <path d="M22.0777347,24.4818367 L22.0777347,24.4818367 C21.9311633,24.4818367 21.7912041,24.4239796 21.6881633,24.3203878 L15.3833878,18.0145102 C15.1679388,17.7990612 15.1679388,17.4508163 15.3833878,17.2353673 L19.2047143,13.4140408 C19.4201633,13.1985918 19.7684082,13.1985918 19.9838571,13.4140408 L26.2891837,19.7193673 C26.3927755,19.8229592 26.4506327,19.9623673 26.4506327,20.1089388 C26.4506327,20.2555102 26.3927755,20.3954694 26.2891837,20.4985102 L22.4673061,24.3203878 C22.3642653,24.4234286 22.2243061,24.4818367 22.0777347,24.4818367 L22.0777347,24.4818367 Z M16.552102,17.6249388 L22.0777347,23.1511224 L25.1199184,20.1089388 L19.5942857,14.5833061 L16.552102,17.6249388 L16.552102,17.6249388 Z"></path>
                            </g>
                        </g>
                    </g>
                    <g id="galaxy" transform="translate(401.658502, 127.536406) rotate(27.000000) translate(-401.658502, -127.536406) translate(381.658502, 114.036406)" fill="#949494">
                        <g id="Group" transform="translate(-0.000000, 0.000000)">
                            <g transform="translate(0.000000, -0.000000)">
                                <path d="M14.1196721,20.1836066 C13.2786885,20.1836066 12.6147541,20.847541 12.6147541,21.6442623 C12.6147541,22.4409836 13.2786885,23.104918 14.1196721,23.104918 C14.9606557,23.104918 15.6245902,22.4409836 15.6245902,21.6442623 C15.6245902,20.847541 14.9606557,20.1836066 14.1196721,20.1836066 L14.1196721,20.1836066 Z M14.1196721,22.2639344 C13.8098361,22.2639344 13.5,21.9983607 13.5,21.6885246 C13.5,21.3786885 13.7655738,21.1131148 14.1196721,21.1131148 C14.4737705,21.1131148 14.7393443,21.3786885 14.7393443,21.6885246 C14.7393443,21.9983607 14.4737705,22.2639344 14.1196721,22.2639344 L14.1196721,22.2639344 Z" id="Shape"></path>
                                <path d="M38.5081967,12.1721311 C39.1278689,12.1721311 39.6590164,11.6852459 39.6590164,11.0655738 C39.6590164,10.4459016 39.1278689,9.95901639 38.5081967,9.95901639 C37.8885246,9.95901639 37.357377,10.4459016 37.357377,11.0655738 C37.357377,11.6852459 37.8885246,12.1721311 38.5081967,12.1721311 L38.5081967,12.1721311 Z M38.5081967,10.8 C38.6409836,10.8 38.7737705,10.8885246 38.7737705,11.0213115 C38.7737705,11.1540984 38.6409836,11.242623 38.5081967,11.242623 C38.3754098,11.242623 38.242623,11.1540984 38.242623,11.0213115 C38.242623,10.8885246 38.3754098,10.8 38.5081967,10.8 L38.5081967,10.8 Z" id="Shape"></path>
                                <path d="M24.8311475,6.59508197 C25.9377049,6.59508197 26.8672131,5.70983607 26.8672131,4.60327869 C26.8672131,3.49672131 25.9819672,2.61147541 24.8311475,2.61147541 C23.6803279,2.61147541 22.795082,3.49672131 22.795082,4.60327869 C22.795082,5.70983607 23.7245902,6.59508197 24.8311475,6.59508197 L24.8311475,6.59508197 Z M24.8311475,3.49672131 C25.4508197,3.49672131 25.9819672,3.98360656 25.9819672,4.60327869 C25.9819672,5.22295082 25.495082,5.70983607 24.8311475,5.70983607 C24.2114754,5.70983607 23.6803279,5.22295082 23.6803279,4.60327869 C23.7245902,3.98360656 24.2114754,3.49672131 24.8311475,3.49672131 L24.8311475,3.49672131 Z" id="Shape"></path>
                                <path d="M2.7442623,2.7 L3.40819672,2.7 L3.40819672,3.36393443 C3.40819672,3.6295082 3.5852459,3.80655738 3.85081967,3.80655738 C4.11639344,3.80655738 4.29344262,3.6295082 4.29344262,3.36393443 L4.29344262,2.7 L4.95737705,2.7 C5.22295082,2.7 5.4,2.52295082 5.4,2.25737705 C5.4,1.99180328 5.22295082,1.8147541 4.95737705,1.8147541 L4.29344262,1.8147541 L4.29344262,1.15081967 C4.29344262,0.885245902 4.11639344,0.708196721 3.85081967,0.708196721 C3.5852459,0.708196721 3.40819672,0.885245902 3.40819672,1.15081967 L3.40819672,1.8147541 L2.7442623,1.8147541 C2.47868852,1.8147541 2.30163934,1.99180328 2.30163934,2.25737705 C2.30163934,2.52295082 2.47868852,2.7 2.7442623,2.7 L2.7442623,2.7 Z" id="Shape"></path>
                                <path d="M36.5163934,24.0344262 L35.852459,24.0344262 L35.852459,23.3704918 C35.852459,23.104918 35.6754098,22.9278689 35.4098361,22.9278689 C35.1442623,22.9278689 34.9672131,23.104918 34.9672131,23.3704918 L34.9672131,24.0344262 L34.3032787,24.0344262 C34.0377049,24.0344262 33.8606557,24.2114754 33.8606557,24.4770492 C33.8606557,24.742623 34.0377049,24.9196721 34.3032787,24.9196721 L34.9672131,24.9196721 L34.9672131,25.5836066 C34.9672131,25.8491803 35.1442623,26.0262295 35.4098361,26.0262295 C35.6754098,26.0262295 35.852459,25.8491803 35.852459,25.5836066 L35.852459,24.9196721 L36.5163934,24.9196721 C36.7819672,24.9196721 36.9590164,24.742623 36.9590164,24.4770492 C36.9590164,24.2114754 36.7377049,24.0344262 36.5163934,24.0344262 L36.5163934,24.0344262 Z" id="Shape"></path>
                                <path d="M32.1344262,2.30163934 C32.2229508,2.39016393 32.3557377,2.43442623 32.4442623,2.43442623 C32.5770492,2.43442623 32.6655738,2.39016393 32.7540984,2.30163934 L33.2409836,1.85901639 L33.7278689,2.30163934 C33.8163934,2.39016393 33.904918,2.43442623 34.0377049,2.43442623 C34.1704918,2.43442623 34.2590164,2.39016393 34.347541,2.30163934 C34.5245902,2.12459016 34.5245902,1.85901639 34.347541,1.68196721 L33.904918,1.23934426 L34.347541,0.796721311 C34.5245902,0.619672131 34.5245902,0.354098361 34.347541,0.17704918 C34.1704918,-5.99312266e-14 33.904918,-5.99312266e-14 33.7278689,0.17704918 L33.2409836,0.619672131 L32.7540984,0.17704918 C32.5770492,-5.99312266e-14 32.3114754,-5.99312266e-14 32.1344262,0.17704918 C31.957377,0.354098361 31.957377,0.619672131 32.1344262,0.796721311 L32.5770492,1.23934426 L32.1344262,1.68196721 C31.957377,1.8147541 31.957377,2.12459016 32.1344262,2.30163934 L32.1344262,2.30163934 Z" id="Shape"></path>
                                <path d="M5.4442623,23.4147541 C5.26721311,23.2377049 5.00163934,23.2377049 4.82459016,23.4147541 L4.33770492,23.857377 L3.85081967,23.4147541 C3.67377049,23.2377049 3.40819672,23.2377049 3.23114754,23.4147541 C3.05409836,23.5918033 3.05409836,23.857377 3.23114754,24.0344262 L3.67377049,24.4770492 L3.23114754,24.9196721 C3.05409836,25.0967213 3.05409836,25.3622951 3.23114754,25.5393443 C3.31967213,25.6278689 3.45245902,25.6721311 3.54098361,25.6721311 C3.67377049,25.6721311 3.76229508,25.6278689 3.85081967,25.5393443 L4.33770492,25.0967213 L4.82459016,25.5393443 C4.91311475,25.6278689 5.00163934,25.6721311 5.13442623,25.6721311 C5.26721311,25.6721311 5.3557377,25.6278689 5.4442623,25.5393443 C5.62131148,25.3622951 5.62131148,25.0967213 5.4442623,24.9196721 L5.00163934,24.4770492 L5.4442623,24.0344262 C5.62131148,23.857377 5.62131148,23.5918033 5.4442623,23.4147541 L5.4442623,23.4147541 Z" id="Shape"></path>
                                <ellipse id="Oval" cx="11.7737705" cy="26.557377" rx="0.442622951" ry="0.442622951"></ellipse>
                                <ellipse id="Oval" cx="33.1967213" cy="12.5704918" rx="0.442622951" ry="0.442622951"></ellipse>
                                <ellipse id="Oval" cx="14.5622951" cy="1.19508197" rx="0.442622951" ry="0.442622951"></ellipse>
                                <path d="M10.4901639,20.6704918 C4.73606557,19.1213115 1.15081967,16.3327869 1.15081967,13.3672131 C1.15081967,8.71967213 9.56065574,4.91311475 19.9180328,4.91311475 C20.1836066,4.91311475 20.3606557,4.73606557 20.3606557,4.4704918 C20.3606557,4.20491803 20.1836066,4.02786885 19.9180328,4.02786885 C8.89672131,4.02786885 0.26557377,8.1442623 0.26557377,13.3672131 C0.26557377,16.8196721 4.02786885,19.8737705 10.2688525,21.5114754 L10.4016393,21.5114754 C10.5786885,21.5114754 10.7557377,21.3786885 10.8442623,21.2016393 C10.8885246,20.9360656 10.7557377,20.7147541 10.4901639,20.6704918 L10.4901639,20.6704918 Z" id="Shape"></path>
                                <path d="M39.1278689,12.9245902 C38.8622951,12.9245902 38.6852459,13.1016393 38.6852459,13.3672131 C38.6852459,18.0147541 30.2754098,21.8213115 19.9180328,21.8213115 C19.2983607,21.8213115 18.6786885,21.8213115 18.1032787,21.7770492 C17.8819672,21.7770492 17.6606557,21.9540984 17.6606557,22.2196721 C17.6606557,22.4852459 17.8377049,22.6622951 18.1032787,22.6622951 C18.7229508,22.7065574 19.342623,22.7065574 19.9622951,22.7065574 C30.9836066,22.7065574 39.6147541,18.5901639 39.6147541,13.3672131 C39.5704918,13.1016393 39.3934426,12.9245902 39.1278689,12.9245902 L39.1278689,12.9245902 Z" id="Shape"></path>
                                <path d="M29.3459016,6.06393443 C32.4885246,6.90491803 35.0557377,8.1 36.6934426,9.60491803 C36.7819672,9.69344262 36.8704918,9.73770492 37.0032787,9.73770492 C37.1360656,9.73770492 37.2245902,9.69344262 37.3131148,9.60491803 C37.4901639,9.42786885 37.4459016,9.16229508 37.2688525,8.9852459 C35.4983607,7.43606557 32.842623,6.10819672 29.5672131,5.26721311 C29.3459016,5.22295082 29.0803279,5.3557377 29.0360656,5.57704918 C28.947541,5.75409836 29.0803279,6.01967213 29.3459016,6.06393443 L29.3459016,6.06393443 Z" id="Shape"></path>
                                <path d="M9.8704918,8.89672131 C7.30327869,10.2245902 5.93114754,11.9508197 6.01967213,13.6770492 C6.10819672,15.447541 7.65737705,16.9967213 10.357377,18.0590164 C13.1901639,19.1655738 16.6868852,19.6967213 20.3163934,19.6967213 C25.1852459,19.6967213 30.142623,18.7229508 33.7721311,16.8639344 C33.9934426,16.7311475 34.0819672,16.4655738 33.9491803,16.2885246 C33.8163934,16.0672131 33.5508197,15.9786885 33.3737705,16.1114754 C27.2655738,19.2540984 17.0852459,19.7852459 10.7114754,17.2622951 C8.40983607,16.3327869 7.03770492,15.0491803 6.94918033,13.6327869 C6.86065574,12.2606557 8.1,10.8 10.3131148,9.64918033 C14.1639344,7.65737705 20.6262295,7.30327869 24.6983607,8.89672131 C26.1147541,9.47213115 26.9557377,10.2688525 27,11.0655738 C27.0442623,11.8622951 26.2918033,12.747541 24.9196721,13.4557377 C22.4852459,14.7393443 18.4131148,14.9163934 15.8459016,13.8983607 C15.6245902,13.8098361 15.3590164,13.942623 15.2704918,14.1639344 C15.1819672,14.3852459 15.2704918,14.6508197 15.5360656,14.7393443 C18.2803279,15.8459016 22.7065574,15.6245902 25.3180328,14.252459 C27,13.3672131 27.9295082,12.2163934 27.8409836,11.0213115 C27.7967213,9.82622951 26.7786885,8.76393443 24.9639344,8.0557377 C20.7147541,6.41803279 13.942623,6.77213115 9.8704918,8.89672131 L9.8704918,8.89672131 Z" id="Shape"></path>
                                <path d="M18.5016393,12.5704918 C18.5016393,12.8360656 18.6786885,13.0131148 18.9442623,13.0131148 C20.0065574,13.0131148 20.9803279,12.8360656 21.6442623,12.5262295 C21.8655738,12.4377049 21.9540984,12.1721311 21.8655738,11.9508197 C21.7770492,11.7295082 21.5114754,11.6409836 21.2901639,11.7295082 C20.7590164,11.995082 19.9180328,12.1278689 18.9885246,12.1278689 C18.7229508,12.1278689 18.5016393,12.3491803 18.5016393,12.5704918 L18.5016393,12.5704918 Z" id="Shape"></path>
                                <path d="M20.0508197,9.95901639 C19.6967213,9.9147541 19.342623,9.8704918 18.9442623,9.8704918 C17.7491803,9.8704918 16.642623,10.0918033 16.0229508,10.4901639 C15.8016393,10.6229508 15.757377,10.8885246 15.8901639,11.1098361 C15.9786885,11.242623 16.1114754,11.3311475 16.2442623,11.3311475 C16.3327869,11.3311475 16.4213115,11.3311475 16.4655738,11.242623 C16.952459,10.9327869 17.9262295,10.7557377 18.9442623,10.7557377 C19.2983607,10.7557377 19.6081967,10.7557377 19.9180328,10.8 C20.1393443,10.8442623 20.3606557,10.6672131 20.404918,10.4016393 C20.4934426,10.1803279 20.3163934,9.95901639 20.0508197,9.95901639 L20.0508197,9.95901639 Z" id="Shape"></path>
                            </g>
                        </g>
                    </g>
                    <g id="saturn" transform="translate(474.183972, 62.485200) rotate(60.000000) translate(-474.183972, -62.485200) translate(462.183972, 52.485200)" fill="#949494">
                        <g id="Group" transform="translate(-0.000000, -0.000000)">
                            <path d="M11.9298246,19.9298246 C6.42105263,19.9298246 1.96491228,15.4736842 1.96491228,9.96491228 C1.96491228,4.45614035 6.42105263,-2.27373675e-13 11.9298246,-2.27373675e-13 C17.4385965,-2.27373675e-13 21.8947368,4.45614035 21.8947368,9.96491228 C21.8947368,15.4736842 17.4035088,19.9298246 11.9298246,19.9298246 L11.9298246,19.9298246 Z M11.9298246,1.12280702 C7.05263158,1.12280702 3.0877193,5.0877193 3.0877193,9.96491228 C3.0877193,14.8421053 7.05263158,18.8070175 11.9298246,18.8070175 C16.8070175,18.8070175 20.7719298,14.8421053 20.7719298,9.96491228 C20.7719298,5.0877193 16.8070175,1.12280702 11.9298246,1.12280702 L11.9298246,1.12280702 Z" id="Shape"></path>
                            <path d="M1.85964912,15.9649123 C1.15789474,15.9649123 0.631578947,15.7894737 0.421052632,15.3684211 C0.0350877193,14.6315789 0.631578947,13.7192982 2.28070175,12.3508772 L2.98245614,13.1929825 C1.78947368,14.1754386 1.50877193,14.6666667 1.43859649,14.8421053 C2.21052632,15.0877193 6.14035088,14.245614 12.6315789,10.9122807 C19.1578947,7.57894737 22.1403509,4.94736842 22.3859649,4.1754386 C22.1754386,4.10526316 21.3684211,4.03508772 19.0526316,4.77192982 L18.7368421,3.71929825 C22.3508772,2.59649123 23.122807,3.0877193 23.4385965,3.68421053 C23.7192982,4.24561404 23.6842105,5.15789474 20.7368421,7.36842105 C18.8070175,8.80701754 16.1052632,10.4210526 13.1578947,11.9298246 C12.1754386,12.3859649 5.0877193,15.9649123 1.85964912,15.9649123 L1.85964912,15.9649123 Z" id="Shape"></path>
                        </g>
                    </g>
                    <g id="moon-" transform="translate(13.445946, 64.000000)" fill="#949494">
                        <g id="Group">
                            <path d="M11.3886951,22.7256234 L11.3886951,22.7256234 C6.57438308,22.7256234 2.27773902,19.6713824 0.698851744,15.1159044 C-0.284717377,12.2687306 -0.103533592,9.18860627 1.2165197,6.47084949 C2.536573,3.7530927 4.84019542,1.70830426 7.68736919,0.698851744 C8.87800549,0.284717377 10.146292,0.0776501938 11.4145785,0.0776501938 L11.4663453,0.0776501938 C11.6216457,0.0776501938 11.7769461,0.181183786 11.8287129,0.336484173 C11.8804797,0.491784561 11.8287129,0.672968347 11.6992959,0.776501938 C8.15327035,3.54602552 6.80733366,8.25680394 8.25680394,12.4757978 C9.73215763,16.6947917 13.7182009,19.5419654 18.1960288,19.5678488 C18.3513291,19.5678488 18.5066295,19.6713824 18.5583963,19.8266828 C18.6101631,19.9819832 18.5583963,20.163167 18.4289793,20.2667006 C17.4195268,21.0690859 16.3065407,21.6902875 15.090021,22.1044218 C13.8993847,22.4926728 12.6310982,22.7256234 11.3886951,22.7256234 L11.3886951,22.7256234 Z M10.3274758,0.88003553 C9.49920705,0.957685724 8.69682171,1.13886951 7.92031977,1.42358689 C5.25432978,2.35538921 3.10600775,4.24487726 1.88948805,6.78145026 C0.672968347,9.31802326 0.491784561,12.1910804 1.42358689,14.831187 C2.89894057,19.0760643 6.88498385,21.9491215 11.3886951,21.9491215 L11.3886951,21.9491215 C12.553448,21.9491215 13.7182009,21.7420543 14.8570704,21.3538033 C15.6335724,21.0690859 16.3841909,20.7326018 17.0830426,20.2667006 C12.7605152,19.8266828 9.00742248,16.9018589 7.5579522,12.7087484 C6.08259852,8.54152132 7.19558463,3.93427649 10.3274758,0.88003553 L10.3274758,0.88003553 Z" id="Shape"></path>
                        </g>
                    </g>
                    <g id="planet" transform="translate(221.000000, 84.000000)">
                        <path d="M49.5,81 C70.2106781,81 87,64.2106781 87,43.5 C87,22.7893219 70.2106781,6 49.5,6 C28.7893219,6 12,22.7893219 12,43.5 C12,64.2106781 28.7893219,81 49.5,81 Z" id="Oval-5" fill="#ABD8FF"></path>
                        <text id="?" font-family="HiraMaruPro-W4, Hiragino Maru Gothic Pro" font-size="20" font-weight="normal" fill="#333333">
                            <tspan x="41.21" y="49">?</tspan>
                        </text>
                        <text id="?" transform="translate(22.684372, 27.421099) rotate(35.000000) translate(-22.684372, -27.421099) " font-family="HiraMaruPro-W4, Hiragino Maru Gothic Pro" font-size="16" font-weight="normal" fill="#333333">
                            <tspan x="18.0523717" y="33.4210985">?</tspan>
                        </text>
                        <text id="?" transform="translate(41.670987, 15.596577) rotate(-12.000000) translate(-41.670987, -15.596577) " font-family="HiraMaruPro-W4, Hiragino Maru Gothic Pro" font-size="12" font-weight="normal" fill="#333333">
                            <tspan x="38.1969867" y="20.5965765">?</tspan>
                        </text>
                        <text id="?" transform="translate(64.325338, 22.816490) rotate(-35.000000) translate(-64.325338, -22.816490) " font-family="HiraMaruPro-W4, Hiragino Maru Gothic Pro" font-size="10" font-weight="normal" fill="#333333">
                            <tspan x="61.4303383" y="26.8164895">?</tspan>
                        </text>
                        <text id="?" font-family="HiraMaruPro-W4, Hiragino Maru Gothic Pro" font-size="6" font-weight="normal" fill="#333333">
                            <tspan x="55.763" y="17">?</tspan>
                        </text>
                        <text id="?" transform="translate(35.156612, 32.373351) rotate(10.000000) translate(-35.156612, -32.373351) " font-family="HiraMaruPro-W4, Hiragino Maru Gothic Pro" font-size="6" font-weight="normal" fill="#333333">
                            <tspan x="33.4196121" y="34.3733515">?</tspan>
                        </text>
                        <ellipse id="Oval-4" stroke="#333333" cx="70" cy="41" rx="7" ry="7"></ellipse>
                        <circle id="Oval-4" stroke="#333333" cx="25" cy="41" r="5"></circle>
                        <path d="M91.5,10 C93.4329966,10 95,8.43299662 95,6.5 C95,4.56700338 93.4329966,3 91.5,3 C89.5670034,3 88,4.56700338 88,6.5 C88,8.43299662 89.5670034,10 91.5,10 Z" id="Oval-4" stroke="#333333"></path>
                        <circle id="Oval-4" stroke="#333333" cx="89" cy="62" r="3"></circle>
                        <circle id="Oval-4" fill="#333333" cx="87" cy="18" r="2"></circle>
                        <circle id="Oval-4" fill="#333333" cx="36" cy="51" r="2"></circle>
                        <circle id="Oval-4" fill="#333333" cx="2" cy="56" r="2"></circle>
                        <circle id="Oval-2" stroke="#333333" cx="45.5" cy="39.5" r="37.5"></circle>
                        <path d="M87.0208714,57.0125208 C91.2665224,53.9392105 93.7214556,50.3038705 93.7214556,46.4081411 C93.7214556,35.372534 74.0219846,26.4264069 49.7214556,26.4264069 C25.4209266,26.4264069 5.72145558,35.372534 5.72145558,46.4081411 C5.72145558,50.9195839 9.01370716,55.0818247 14.5666634,58.4264069" id="Oval-3" stroke="#333333" transform="translate(49.721456, 42.426407) rotate(135.000000) translate(-49.721456, -42.426407) "></path>
                        <path d="M9.48938785,28 C4.15201247,31.2255863 1,35.2058411 1,39.5123627 C1,50.2750876 20.6869819,59 44.9721047,59 C69.2572275,59 88.9442094,50.2750876 88.9442094,39.5123627 C88.9442094,35.4627144 86.157002,31.7015717 81.3863744,28.5851586" id="Oval-3" stroke="#333333"></path>
                    </g>
                    <g id="rocket" transform="translate(231.886291, 65.134089) rotate(135.000000) translate(-231.886291, -65.134089) translate(221.886291, 44.134089)">
                        <path d="M10.939496,29.0705164 L4.22235313,29.0705164 L4.05827149,28.7137817 C3.95745517,28.4941899 1.57786333,23.2648021 0.739495983,17.1476592 C-0.392748915,8.8860266 1.9060266,3.0660266 7.38765925,0.317047003 L7.66194496,0.179495983 L7.93623068,0.317047003 C13.419496,3.06684292 15.6905164,8.88847557 14.5035776,17.1517409 C13.6256184,23.2684756 11.2064348,28.4978633 11.1039858,28.7174552 L10.939496,29.0705164 Z" id="Shape" fill="#F68C76"></path>
                        <path d="M13.0608163,31.1918367 L6.34367347,31.1918367 L6.17959184,30.835102 C6.07877551,30.6155102 3.69918367,25.3861224 2.86081633,19.2689796 C1.72857143,11.0073469 4.02734694,5.18734694 9.50897959,2.43836735 L9.78326531,2.30081633 L10.057551,2.43836735 C15.5408163,5.18816327 17.8118367,11.0097959 16.624898,19.2730612 C15.7469388,25.3897959 13.3277551,30.6191837 13.2253061,30.8387755 L13.0608163,31.1918367 L13.0608163,31.1918367 Z M9.52530612,29.9673469 L12.2726531,29.9673469 C13.4542857,27.2326531 20.6081633,9.45755102 9.78367347,3.67469388 C-1.04122449,9.45632653 5.97142857,27.22 7.13755102,29.9673469 L9.52530612,29.9673469 L9.52530612,29.9673469 Z" id="Shape" fill="#333333"></path>
                        <path d="M0.22244898,32.3367347 L4.05795918,21.9253061 L7.34571429,30.1436735 L0.22244898,32.3367347 L0.22244898,32.3367347 Z M4.10530612,25.34 L2.22653061,30.4387755 L5.71510204,29.364898 L4.10530612,25.34 L4.10530612,25.34 Z" id="Shape" fill="#333333"></path>
                        <path d="M19.1934694,32.3653061 L12.2844898,30.1481633 L15.0542857,21.8391837 L19.1934694,32.3653061 L19.1934694,32.3653061 Z M13.837551,29.3604082 L17.1089796,30.4102041 L15.1493878,25.4261224 L13.837551,29.3604082 L13.837551,29.3604082 Z" id="Shape" fill="#333333"></path>
                        <path d="M9.86,41.9036735 L8.03836735,34.0363265 C8.03836735,33.02 8.86530612,32.1930612 9.88163265,32.1930612 C10.8987755,32.1930612 11.7257143,33.0195918 11.7257143,34.0363265 L11.7089796,34.1791837 L9.86,41.9036735 L9.86,41.9036735 Z M9.26530612,33.977551 L9.87428571,36.5832653 L10.4979592,33.9759184 C10.4677551,33.6628571 10.202449,33.417551 9.88122449,33.417551 C9.56,33.417551 9.29510204,33.6636735 9.26530612,33.977551 L9.26530612,33.977551 Z" id="Shape" fill="#333333"></path>
                        <path d="M9.70326531,16.0853061 C7.89673469,16.0853061 6.42734694,14.6155102 6.42734694,12.8093878 C6.42734694,11.0032653 7.89714286,9.53387755 9.70326531,9.53387755 C11.5093878,9.53387755 12.9791837,11.0032653 12.9791837,12.8093878 C12.9795918,14.6155102 11.5097959,16.0853061 9.70326531,16.0853061 L9.70326531,16.0853061 Z M9.70326531,10.7583673 C8.5722449,10.7583673 7.65183673,11.6783673 7.65183673,12.8093878 C7.65183673,13.9404082 8.5722449,14.8608163 9.70326531,14.8608163 C10.8342857,14.8608163 11.7546939,13.9408163 11.7546939,12.8093878 C11.755102,11.6783673 10.8346939,10.7583673 9.70326531,10.7583673 L9.70326531,10.7583673 Z" id="Shape" fill="#333333"></path>
                    </g>
                    <g id="rocket-lines" transform="translate(165.000000, 0.000000)" fill="#FAB769">
                        <rect id="Rectangle" transform="translate(28.455844, 33.955844) rotate(-135.000000) translate(-28.455844, -33.955844) " x="-1.54415588" y="33.4558441" width="60" height="1" rx="0.5"></rect>
                        <rect id="Rectangle" transform="translate(29.162951, 27.662951) rotate(-135.000000) translate(-29.162951, -27.662951) " x="-0.837049096" y="27.1629509" width="60" height="1" rx="0.5"></rect>
                        <rect id="Rectangle" transform="translate(37.920310, 29.420310) rotate(-135.000000) translate(-37.920310, -29.420310) " x="12.9203102" y="28.9203102" width="50" height="1" rx="0.5"></rect>
                        <rect id="Rectangle" transform="translate(15.535534, 7.035534) rotate(-135.000000) translate(-15.535534, -7.035534) " x="12.5355339" y="6.53553391" width="6" height="1" rx="0.5"></rect>
                        <rect id="Rectangle" transform="translate(3.328427, 2.328427) rotate(-135.000000) translate(-3.328427, -2.328427) " x="0.828427125" y="1.82842712" width="5" height="1" rx="0.5"></rect>
                        <rect id="Rectangle" transform="translate(2.535534, 9.035534) rotate(-135.000000) translate(-2.535534, -9.035534) " x="-0.464466094" y="8.53553391" width="6" height="1" rx="0.5"></rect>
                    </g>
                    <g id="stars" transform="translate(445.000000, 44.000000)" fill="#757575">
                        <g id="Group">
                            <g id="Shape">
                                <path d="M2.29166667,6 L2.70833333,6 C2.70833333,4.96875 3.96875,3.70833333 5,3.70833333 L5,3.29166667 C3.96875,3.29166667 2.70833333,2.03125 2.70833333,1 L2.29166667,1 C2.29166667,2.03125 1.03125,3.29166667 0,3.29166667 L0,3.70833333 C1.03125,3.70833333 2.29166667,4.96875 2.29166667,6 L2.29166667,6 Z M2.5,1.875 C2.8125,2.5625 3.4375,3.1875 4.125,3.5 C3.4375,3.8125 2.8125,4.4375 2.5,5.125 C2.1875,4.4375 1.5625,3.8125 0.875,3.5 C1.5625,3.1875 2.1875,2.5625 2.5,1.875 L2.5,1.875 Z"></path>
                                <path d="M8.76923077,2.50831601 C9.35301455,2.50831601 10.0665281,3.24615385 10.0665281,3.84615385 L10.3908524,3.84615385 C10.3908524,3.24615385 11.1043659,2.50831601 11.6881497,2.50831601 L11.6881497,2.18399168 C11.1043659,2.18399168 10.3908524,1.44615385 10.3908524,0.846153846 L10.0665281,0.846153846 C10.0665281,1.44615385 9.35301455,2.18399168 8.76923077,2.18399168 L8.76923077,2.50831601 L8.76923077,2.50831601 Z M10.2286902,1.47047817 C10.4151767,1.83534304 10.739501,2.15966736 11.0881497,2.35426195 C10.7313929,2.54074844 10.4070686,2.87318087 10.2286902,3.23804574 C10.0422037,2.87318087 9.71787942,2.54885655 9.36923077,2.35426195 C9.71787942,2.15966736 10.0422037,1.83534304 10.2286902,1.47047817 L10.2286902,1.47047817 Z"></path>
                                <path d="M5.51648352,13.6923077 C5.51648352,12.9208791 6.45934066,11.978022 7.23076923,11.978022 L7.23076923,11.4065934 C6.45934066,11.4065934 5.51648352,10.4637363 5.51648352,9.69230769 L4.94505495,9.69230769 C4.94505495,10.4637363 4.0021978,11.4065934 3.23076923,11.4065934 L3.23076923,11.978022 C4.0021978,11.978022 4.94505495,12.9208791 4.94505495,13.6923077 L5.51648352,13.6923077 L5.51648352,13.6923077 Z M4.2021978,11.6923077 C4.61648352,11.4494505 4.98791209,11.078022 5.23076923,10.6637363 C5.47362637,11.078022 5.84505495,11.4494505 6.25934066,11.6923077 C5.84505495,11.9351648 5.47362637,12.3065934 5.23076923,12.7208791 C4.98791209,12.3065934 4.61648352,11.9351648 4.2021978,11.6923077 L4.2021978,11.6923077 Z"></path>
                            </g>
                        </g>
                    </g>
                    <path d="M518,116.216216 C518.778378,116.216216 519.72973,117.2 519.72973,118 L520.162162,118 C520.162162,117.2 521.113514,116.216216 521.891892,116.216216 L521.891892,115.783784 C521.113514,115.783784 520.162162,114.8 520.162162,114 L519.72973,114 C519.72973,114.8 518.778378,115.783784 518,115.783784 L518,116.216216 L518,116.216216 Z M519.945946,114.832432 C520.194595,115.318919 520.627027,115.751351 521.091892,116.010811 C520.616216,116.259459 520.183784,116.702703 519.945946,117.189189 C519.697297,116.702703 519.264865,116.27027 518.8,116.010811 C519.264865,115.751351 519.697297,115.318919 519.945946,114.832432 L519.945946,114.832432 Z" id="Shape" fill="#757575"></path>
                    <path d="M363,155.77027 C363.972973,155.77027 365.162162,157 365.162162,158 L365.702703,158 C365.702703,157 366.891892,155.77027 367.864865,155.77027 L367.864865,155.22973 C366.891892,155.22973 365.702703,154 365.702703,153 L365.162162,153 C365.162162,154 363.972973,155.22973 363,155.22973 L363,155.77027 L363,155.77027 Z M365.432432,154.040541 C365.743243,154.648649 366.283784,155.189189 366.864865,155.513514 C366.27027,155.824324 365.72973,156.378378 365.432432,156.986486 C365.121622,156.378378 364.581081,155.837838 364,155.513514 C364.581081,155.189189 365.121622,154.648649 365.432432,154.040541 L365.432432,154.040541 Z" id="Shape" fill="#757575"></path>
                    <path d="M152.5,158 C152.776142,158 153,157.776142 153,157.5 C153,157.223858 152.776142,157 152.5,157 C152.223858,157 152,157.223858 152,157.5 C152,157.776142 152.223858,158 152.5,158 Z" id="Oval-6" fill="#757575" transform="translate(152.500000, 157.500000) scale(-1, 1) translate(-152.500000, -157.500000) "></path>
                    <path d="M71,150.77027 C71.972973,150.77027 73.1621622,152 73.1621622,153 L73.7027027,153 C73.7027027,152 74.8918919,150.77027 75.8648649,150.77027 L75.8648649,150.22973 C74.8918919,150.22973 73.7027027,149 73.7027027,148 L73.1621622,148 C73.1621622,149 71.972973,150.22973 71,150.22973 L71,150.77027 L71,150.77027 Z M73.4324324,149.040541 C73.7432432,149.648649 74.2837838,150.189189 74.8648649,150.513514 C74.2702703,150.824324 73.7297297,151.378378 73.4324324,151.986486 C73.1216216,151.378378 72.5810811,150.837838 72,150.513514 C72.5810811,150.189189 73.1216216,149.648649 73.4324324,149.040541 L73.4324324,149.040541 Z" id="Shape" fill="#757575"></path>
                    <path d="M78,147.216216 C78.8,147.216216 79.7777778,148.2 79.7777778,149 L80.2222222,149 C80.2222222,148.2 81.2,147.216216 82,147.216216 L82,146.783784 C81.2,146.783784 80.2222222,145.8 80.2222222,145 L79.7777778,145 C79.7777778,145.8 78.8,146.783784 78,146.783784 L78,147.216216 L78,147.216216 Z M80,145.832432 C80.2555556,146.318919 80.7,146.751351 81.1777778,147.010811 C80.6888889,147.259459 80.2444444,147.702703 80,148.189189 C79.7444444,147.702703 79.3,147.27027 78.8222222,147.010811 C79.3,146.751351 79.7444444,146.318919 80,145.832432 L80,145.832432 Z" id="Shape" fill="#757575"></path>
                    <path d="M88,153.216216 C88.8,153.216216 89.7777778,154.2 89.7777778,155 L90.2222222,155 C90.2222222,154.2 91.2,153.216216 92,153.216216 L92,152.783784 C91.2,152.783784 90.2222222,151.8 90.2222222,151 L89.7777778,151 C89.7777778,151.8 88.8,152.783784 88,152.783784 L88,153.216216 L88,153.216216 Z M90,151.832432 C90.2555556,152.318919 90.7,152.751351 91.1777778,153.010811 C90.6888889,153.259459 90.2444444,153.702703 90,154.189189 C89.7444444,153.702703 89.3,153.27027 88.8222222,153.010811 C89.3,152.751351 89.7444444,152.318919 90,151.832432 L90,151.832432 Z" id="Shape" fill="#757575"></path>
                    <path d="M100,123.77027 C101,123.77027 102.222222,125 102.222222,126 L102.777778,126 C102.777778,125 104,123.77027 105,123.77027 L105,123.22973 C104,123.22973 102.777778,122 102.777778,121 L102.222222,121 C102.222222,122 101,123.22973 100,123.22973 L100,123.77027 L100,123.77027 Z M102.5,122.040541 C102.819444,122.648649 103.375,123.189189 103.972222,123.513514 C103.361111,123.824324 102.805556,124.378378 102.5,124.986486 C102.180556,124.378378 101.625,123.837838 101.027778,123.513514 C101.625,123.189189 102.180556,122.648649 102.5,122.040541 L102.5,122.040541 Z" id="Shape" fill="#757575"></path>
                    <path d="M122.714286,76.7702703 C123.714286,76.7702703 124.936508,78 124.936508,79 L125.492063,79 C125.492063,78 126.714286,76.7702703 127.714286,76.7702703 L127.714286,76.2297297 C126.714286,76.2297297 125.492063,75 125.492063,74 L124.936508,74 C124.936508,75 123.714286,76.2297297 122.714286,76.2297297 L122.714286,76.7702703 L122.714286,76.7702703 Z M125.214286,75.0405405 C125.53373,75.6486486 126.089286,76.1891892 126.686508,76.5135135 C126.075397,76.8243243 125.519841,77.3783784 125.214286,77.9864865 C124.894841,77.3783784 124.339286,76.8378378 123.742063,76.5135135 C124.339286,76.1891892 124.894841,75.6486486 125.214286,75.0405405 L125.214286,75.0405405 Z" id="Shape" fill="#757575"></path>
                    <path d="M53,89.7702703 C54,89.7702703 55.2222222,91 55.2222222,92 L55.7777778,92 C55.7777778,91 57,89.7702703 58,89.7702703 L58,89.2297297 C57,89.2297297 55.7777778,88 55.7777778,87 L55.2222222,87 C55.2222222,88 54,89.2297297 53,89.2297297 L53,89.7702703 L53,89.7702703 Z M55.5,88.0405405 C55.8194444,88.6486486 56.375,89.1891892 56.9722222,89.5135135 C56.3611111,89.8243243 55.8055556,90.3783784 55.5,90.9864865 C55.1805556,90.3783784 54.625,89.8378378 54.0277778,89.5135135 C54.625,89.1891892 55.1805556,88.6486486 55.5,88.0405405 L55.5,88.0405405 Z" id="Shape" fill="#757575"></path>
                    <path d="M510,126.324324 C511.167568,126.324324 512.594595,127.8 512.594595,129 L513.243243,129 C513.243243,127.8 514.67027,126.324324 515.837838,126.324324 L515.837838,125.675676 C514.67027,125.675676 513.243243,124.2 513.243243,123 L512.594595,123 C512.594595,124.2 511.167568,125.675676 510,125.675676 L510,126.324324 L510,126.324324 Z M512.918919,124.248649 C513.291892,124.978378 513.940541,125.627027 514.637838,126.016216 C513.924324,126.389189 513.275676,127.054054 512.918919,127.783784 C512.545946,127.054054 511.897297,126.405405 511.2,126.016216 C511.897297,125.627027 512.545946,124.978378 512.918919,124.248649 L512.918919,124.248649 Z" id="Shape" fill="#757575"></path>
                    <g id="stars" transform="translate(6.000000, 222.500000) scale(-1, 1) translate(-6.000000, -222.500000) translate(0.500000, 216.000000)" fill="#757575">
                        <g id="Group">
                            <g id="Shape">
                                <path d="M2.29166667,8 L2.70833333,8 C2.70833333,6.96875 3.96875,5.70833333 5,5.70833333 L5,5.29166667 C3.96875,5.29166667 2.70833333,4.03125 2.70833333,3 L2.29166667,3 C2.29166667,4.03125 1.03125,5.29166667 0,5.29166667 L0,5.70833333 C1.03125,5.70833333 2.29166667,6.96875 2.29166667,8 L2.29166667,8 Z M2.5,3.875 C2.8125,4.5625 3.4375,5.1875 4.125,5.5 C3.4375,5.8125 2.8125,6.4375 2.5,7.125 C2.1875,6.4375 1.5625,5.8125 0.875,5.5 C1.5625,5.1875 2.1875,4.5625 2.5,3.875 L2.5,3.875 Z"></path>
                                <path d="M6.8974359,2.7033957 C7.67581428,2.7033957 8.62716563,3.68717949 8.62716563,4.48717949 L9.05959806,4.48717949 C9.05959806,3.68717949 10.0109494,2.7033957 10.7893278,2.7033957 L10.7893278,2.27096327 C10.0109494,2.27096327 9.05959806,1.28717949 9.05959806,0.487179487 L8.62716563,0.487179487 C8.62716563,1.28717949 7.67581428,2.27096327 6.8974359,2.27096327 L6.8974359,2.7033957 L6.8974359,2.7033957 Z M8.84338184,1.31961192 C9.09203049,1.80609841 9.52446292,2.23853084 9.98932779,2.4979903 C9.51365211,2.74663895 9.08121968,3.18988219 8.84338184,3.67636868 C8.59473319,3.18988219 8.16230076,2.75744976 7.6974359,2.4979903 C8.16230076,2.23853084 8.59473319,1.80609841 8.84338184,1.31961192 L8.84338184,1.31961192 Z"></path>
                                <path d="M6.48351648,12.974359 C6.48351648,12.3957875 7.19065934,11.6886447 7.76923077,11.6886447 L7.76923077,11.2600733 C7.19065934,11.2600733 6.48351648,10.5529304 6.48351648,9.97435897 L6.05494505,9.97435897 C6.05494505,10.5529304 5.3478022,11.2600733 4.76923077,11.2600733 L4.76923077,11.6886447 C5.3478022,11.6886447 6.05494505,12.3957875 6.05494505,12.974359 L6.48351648,12.974359 L6.48351648,12.974359 Z M5.4978022,11.474359 C5.80851648,11.2922161 6.08708791,11.0136447 6.26923077,10.7029304 C6.45137363,11.0136447 6.72994505,11.2922161 7.04065934,11.474359 C6.72994505,11.6565018 6.45137363,11.9350733 6.26923077,12.2457875 C6.08708791,11.9350733 5.80851648,11.6565018 5.4978022,11.474359 L5.4978022,11.474359 Z"></path>
                            </g>
                        </g>
                    </g>
                    <path d="M11.5,116.216216 C12.2783784,116.216216 13.2297297,117.2 13.2297297,118 L13.6621622,118 C13.6621622,117.2 14.6135135,116.216216 15.3918919,116.216216 L15.3918919,115.783784 C14.6135135,115.783784 13.6621622,114.8 13.6621622,114 L13.2297297,114 C13.2297297,114.8 12.2783784,115.783784 11.5,115.783784 L11.5,116.216216 L11.5,116.216216 Z M13.4459459,114.832432 C13.6945946,115.318919 14.127027,115.751351 14.5918919,116.010811 C14.1162162,116.259459 13.6837838,116.702703 13.4459459,117.189189 C13.1972973,116.702703 12.7648649,116.27027 12.3,116.010811 C12.7648649,115.751351 13.1972973,115.318919 13.4459459,114.832432 L13.4459459,114.832432 Z" id="Shape" fill="#757575" transform="translate(13.445946, 116.000000) scale(-1, 1) translate(-13.445946, -116.000000) "></path>
                    <path d="M3.5,126.324324 C4.66756757,126.324324 6.09459459,127.8 6.09459459,129 L6.74324324,129 C6.74324324,127.8 8.17027027,126.324324 9.33783784,126.324324 L9.33783784,125.675676 C8.17027027,125.675676 6.74324324,124.2 6.74324324,123 L6.09459459,123 C6.09459459,124.2 4.66756757,125.675676 3.5,125.675676 L3.5,126.324324 L3.5,126.324324 Z M6.41891892,124.248649 C6.79189189,124.978378 7.44054054,125.627027 8.13783784,126.016216 C7.42432432,126.389189 6.77567568,127.054054 6.41891892,127.783784 C6.04594595,127.054054 5.3972973,126.405405 4.7,126.016216 C5.3972973,125.627027 6.04594595,124.978378 6.41891892,124.248649 L6.41891892,124.248649 Z" id="Shape" fill="#757575" transform="translate(6.418919, 126.000000) scale(-1, 1) translate(-6.418919, -126.000000) "></path>
                    <g id="Group-2" transform="translate(64.000000, 190.000000)" fill="#757575">
                        <path d="M8,2.27777778 C8.8,2.27777778 9.77777778,3.28888889 9.77777778,4.11111111 L10.2222222,4.11111111 C10.2222222,3.28888889 11.2,2.27777778 12,2.27777778 L12,1.83333333 C11.2,1.83333333 10.2222222,0.822222222 10.2222222,0 L9.77777778,0 C9.77777778,0.822222222 8.8,1.83333333 8,1.83333333 L8,2.27777778 L8,2.27777778 Z M11.1777778,2.06666667 C10.6888889,2.32222222 10.2444444,2.77777778 10,3.27777778 C9.74444444,2.77777778 9.3,2.33333333 8.82222222,2.06666667 C9.3,1.8 9.74444444,1.35555556 10,0.855555556 C10.2555556,1.35555556 10.7,1.8 11.1777778,2.06666667 Z" id="Shape"></path>
                        <path d="M0,12.3243243 C1.16756757,12.3243243 2.59459459,13.8 2.59459459,15 L3.24324324,15 C3.24324324,13.8 4.67027027,12.3243243 5.83783784,12.3243243 L5.83783784,11.6756757 C4.67027027,11.6756757 3.24324324,10.2 3.24324324,9 L2.59459459,9 C2.59459459,10.2 1.16756757,11.6756757 0,11.6756757 L0,12.3243243 L0,12.3243243 Z M2.91891892,10.2486486 C3.29189189,10.9783784 3.94054054,11.627027 4.63783784,12.0162162 C3.92432432,12.3891892 3.27567568,13.0540541 2.91891892,13.7837838 C2.54594595,13.0540541 1.8972973,12.4054054 1.2,12.0162162 C1.8972973,11.627027 2.54594595,10.9783784 2.91891892,10.2486486 L2.91891892,10.2486486 Z" id="Shape"></path>
                    </g>
                    <path d="M458,184.216216 C458.778378,184.216216 459.72973,185.2 459.72973,186 L460.162162,186 C460.162162,185.2 461.113514,184.216216 461.891892,184.216216 L461.891892,183.783784 C461.113514,183.783784 460.162162,182.8 460.162162,182 L459.72973,182 C459.72973,182.8 458.778378,183.783784 458,183.783784 L458,184.216216 L458,184.216216 Z M459.945946,182.832432 C460.194595,183.318919 460.627027,183.751351 461.091892,184.010811 C460.616216,184.259459 460.183784,184.702703 459.945946,185.189189 C459.697297,184.702703 459.264865,184.27027 458.8,184.010811 C459.264865,183.751351 459.697297,183.318919 459.945946,182.832432 L459.945946,182.832432 Z" id="Shape" fill="#757575"></path>
                    <path d="M452,190.324324 C453.167568,190.324324 454.594595,191.8 454.594595,193 L455.243243,193 C455.243243,191.8 456.67027,190.324324 457.837838,190.324324 L457.837838,189.675676 C456.67027,189.675676 455.243243,188.2 455.243243,187 L454.594595,187 C454.594595,188.2 453.167568,189.675676 452,189.675676 L452,190.324324 L452,190.324324 Z M454.918919,188.248649 C455.291892,188.978378 455.940541,189.627027 456.637838,190.016216 C455.924324,190.389189 455.275676,191.054054 454.918919,191.783784 C454.545946,191.054054 453.897297,190.405405 453.2,190.016216 C453.897297,189.627027 454.545946,188.978378 454.918919,188.248649 L454.918919,188.248649 Z" id="Shape" fill="#757575"></path>
                    <path d="M168,110.77027 C169,110.77027 170.222222,112 170.222222,113 L170.777778,113 C170.777778,112 172,110.77027 173,110.77027 L173,110.22973 C172,110.22973 170.777778,109 170.777778,108 L170.222222,108 C170.222222,109 169,110.22973 168,110.22973 L168,110.77027 L168,110.77027 Z M170.5,109.040541 C170.819444,109.648649 171.375,110.189189 171.972222,110.513514 C171.361111,110.824324 170.805556,111.378378 170.5,111.986486 C170.180556,111.378378 169.625,110.837838 169.027778,110.513514 C169.625,110.189189 170.180556,109.648649 170.5,109.040541 L170.5,109.040541 Z" id="Shape" fill="#757575"></path>
                    <path d="M152,155.324324 C153.167568,155.324324 154.594595,156.8 154.594595,158 L155.243243,158 C155.243243,156.8 156.67027,155.324324 157.837838,155.324324 L157.837838,154.675676 C156.67027,154.675676 155.243243,153.2 155.243243,152 L154.594595,152 C154.594595,153.2 153.167568,154.675676 152,154.675676 L152,155.324324 L152,155.324324 Z M154.918919,153.248649 C155.291892,153.978378 155.940541,154.627027 156.637838,155.016216 C155.924324,155.389189 155.275676,156.054054 154.918919,156.783784 C154.545946,156.054054 153.897297,155.405405 153.2,155.016216 C153.897297,154.627027 154.545946,153.978378 154.918919,153.248649 L154.918919,153.248649 Z" id="Shape" fill="#757575" transform="translate(154.918919, 155.000000) scale(-1, 1) translate(-154.918919, -155.000000) "></path>
                    <g id="KITE" transform="translate(328.000000, 32.000000)">
                        <rect id="Rectangle-2" fill="#949494" transform="translate(10.000000, 4.500000) rotate(-25.000000) translate(-10.000000, -4.500000) " x="5" y="4" width="10" height="1"></rect>
                        <rect id="Rectangle-2" fill="#949494" transform="translate(20.369473, 4.179947) rotate(25.000000) translate(-20.369473, -4.179947) " x="16.8694732" y="3.67994703" width="7" height="1"></rect>
                        <rect id="Rectangle-2" fill="#949494" transform="translate(30.633386, 7.932318) rotate(11.000000) translate(-30.633386, -7.932318) " x="26.8833864" y="7.43231781" width="7.5" height="1"></rect>
                        <rect id="Rectangle-2" fill="#949494" transform="translate(44.531100, 6.158645) rotate(-16.000000) translate(-44.531100, -6.158645) " x="36.0310996" y="5.65864508" width="17" height="1"></rect>
                        <rect id="Rectangle-2" fill="#949494" transform="translate(47.308543, 15.823548) rotate(-9.000000) translate(-47.308543, -15.823548) " x="40.8085431" y="15.3235484" width="13" height="1"></rect>
                        <rect id="Rectangle-2" fill="#949494" transform="translate(55.500000, 9.000000) rotate(90.000000) translate(-55.500000, -9.000000) " x="52.5" y="8.5" width="6" height="1"></rect>
                        <rect id="Rectangle-2" fill="#949494" transform="translate(37.701992, 13.104315) rotate(62.000000) translate(-37.701992, -13.104315) " x="33.9519922" y="12.6043155" width="7.5" height="1"></rect>
                        <use id="Oval-7" stroke="#949494" mask="url(#mask-2)" stroke-width="2" xlink:href="#path-1"></use>
                        <use id="Oval-7" stroke="#949494" mask="url(#mask-4)" stroke-width="2" xlink:href="#path-3"></use>
                        <use id="Oval-7" stroke="#949494" mask="url(#mask-6)" stroke-width="2" xlink:href="#path-5"></use>
                        <use id="Oval-7" stroke="#949494" mask="url(#mask-8)" stroke-width="2" xlink:href="#path-7"></use>
                        <use id="Oval-7" stroke="#949494" mask="url(#mask-10)" stroke-width="2" xlink:href="#path-9"></use>
                        <use id="Oval-7" stroke="#949494" mask="url(#mask-12)" stroke-width="2" xlink:href="#path-11"></use>
                        <use id="Oval-7" stroke="#949494" mask="url(#mask-14)" stroke-width="2" xlink:href="#path-13"></use>
                    </g>
                    <g id="KITE" transform="translate(111.000000, 46.500000) scale(-1, 1) translate(-111.000000, -46.500000) translate(82.000000, 37.000000)">
                        <rect id="Rectangle-2" fill="#949494" transform="translate(10.000000, 4.500000) rotate(-25.000000) translate(-10.000000, -4.500000) " x="5" y="4" width="10" height="1"></rect>
                        <rect id="Rectangle-2" fill="#949494" transform="translate(20.369473, 4.179947) rotate(25.000000) translate(-20.369473, -4.179947) " x="16.8694732" y="3.67994703" width="7" height="1"></rect>
                        <rect id="Rectangle-2" fill="#949494" transform="translate(30.633386, 7.932318) rotate(11.000000) translate(-30.633386, -7.932318) " x="26.8833864" y="7.43231781" width="7.5" height="1"></rect>
                        <rect id="Rectangle-2" fill="#949494" transform="translate(44.531100, 6.158645) rotate(-16.000000) translate(-44.531100, -6.158645) " x="36.0310996" y="5.65864508" width="17" height="1"></rect>
                        <rect id="Rectangle-2" fill="#949494" transform="translate(47.308543, 15.823548) rotate(-9.000000) translate(-47.308543, -15.823548) " x="40.8085431" y="15.3235484" width="13" height="1"></rect>
                        <rect id="Rectangle-2" fill="#949494" transform="translate(55.500000, 9.000000) rotate(90.000000) translate(-55.500000, -9.000000) " x="52.5" y="8.5" width="6" height="1"></rect>
                        <rect id="Rectangle-2" fill="#949494" transform="translate(37.701992, 13.104315) rotate(62.000000) translate(-37.701992, -13.104315) " x="33.9519922" y="12.6043155" width="7.5" height="1"></rect>
                        <use id="Oval-7" stroke="#949494" mask="url(#mask-16)" stroke-width="2" xlink:href="#path-15"></use>
                        <use id="Oval-7" stroke="#949494" mask="url(#mask-18)" stroke-width="2" xlink:href="#path-17"></use>
                        <use id="Oval-7" stroke="#949494" mask="url(#mask-20)" stroke-width="2" xlink:href="#path-19"></use>
                        <use id="Oval-7" stroke="#949494" mask="url(#mask-22)" stroke-width="2" xlink:href="#path-21"></use>
                        <use id="Oval-7" stroke="#949494" mask="url(#mask-24)" stroke-width="2" xlink:href="#path-23"></use>
                        <use id="Oval-7" stroke="#949494" mask="url(#mask-26)" stroke-width="2" xlink:href="#path-25"></use>
                        <use id="Oval-7" stroke="#949494" mask="url(#mask-28)" stroke-width="2" xlink:href="#path-27"></use>
                    </g>
                    <path d="M248.898438,209.539062 L253.632812,209.539062 L253.632812,213.078125 L248.898438,213.078125 L248.898438,221 L244.539062,221 L244.539062,213.078125 L229,213.078125 L229,210.523438 L244.28125,186.875 L248.898438,186.875 L248.898438,209.539062 Z M233.921875,209.539062 L244.539062,209.539062 L244.539062,192.804688 L244.023438,193.742188 L233.921875,209.539062 Z M278.945312,206.445312 C278.945312,211.523463 278.078134,215.296863 276.34375,217.765625 C274.609366,220.234387 271.898456,221.46875 268.210938,221.46875 C264.570294,221.46875 261.875009,220.261731 260.125,217.847656 C258.374991,215.433582 257.46875,211.828149 257.40625,207.03125 L257.40625,201.242188 C257.40625,196.226537 258.273429,192.500012 260.007812,190.0625 C261.742196,187.624988 264.460919,186.40625 268.164062,186.40625 C271.835956,186.40625 274.539054,187.582019 276.273438,189.933594 C278.007821,192.285168 278.898437,195.914038 278.945312,200.820312 L278.945312,206.445312 Z M274.609375,200.515625 C274.609375,196.843732 274.093755,194.167977 273.0625,192.488281 C272.031245,190.808585 270.398449,189.96875 268.164062,189.96875 C265.945301,189.96875 264.32813,190.804679 263.3125,192.476562 C262.29687,194.148446 261.773438,196.718733 261.742188,200.1875 L261.742188,207.125 C261.742188,210.812518 262.277338,213.535147 263.347656,215.292969 C264.417974,217.05079 266.039052,217.929688 268.210938,217.929688 C270.351573,217.929688 271.941401,217.101571 272.980469,215.445312 C274.019536,213.789054 274.5625,211.179705 274.609375,207.617188 L274.609375,200.515625 Z M302.804688,209.539062 L307.539062,209.539062 L307.539062,213.078125 L302.804688,213.078125 L302.804688,221 L298.445312,221 L298.445312,213.078125 L282.90625,213.078125 L282.90625,210.523438 L298.1875,186.875 L302.804688,186.875 L302.804688,209.539062 Z M287.828125,209.539062 L298.445312,209.539062 L298.445312,192.804688 L297.929688,193.742188 L287.828125,209.539062 Z" id="404" fill-opacity="0.87" fill="#333333"></path>
                </g>
            </g>
        </g>
    </g>
</svg>