<?xml version="1.0" encoding="utf-8"?>
<!-- Generator: Adobe Illustrator 18.1.0, SVG Export Plug-In . SVG Version: 6.00 Build 0)  -->
<svg version="1.0" id="Layer_1" xmlns="http://www.w3.org/2000/svg" xmlns:xlink="http://www.w3.org/1999/xlink" x="0px" y="0px"
	 viewBox="0 0 150 150" enable-background="new 0 0 150 150" xml:space="preserve">
<g>
	<g>
		<path fill="#224859" d="M9.1,72.5c7.4-12.8,18.3-23,30.9-29.6c1.5-2.2,3.3-4.4,5.3-6.4c0.1-0.1,0.1-0.1,0.2-0.2
			c-16.7,6.8-31,19.1-40.1,35.3c-0.3,0.6-0.3,1.2,0,1.8c11.7,20.9,32,35.3,55,39.8l-4.9-4.9C36.3,103,19.4,90.3,9.1,72.5z"/>
		<path fill="#224859" d="M146.1,71.6c-8.9-15.9-22.8-28.1-39.1-34.9c2.1,2.1,3.9,4.3,5.4,6.7c12.2,6.7,22.7,16.6,29.9,29.1
			C132.3,90,115.8,102.6,96.9,108l-5,5c22.7-4.6,42.6-19,54.3-39.6C146.4,72.9,146.4,72.2,146.1,71.6z"/>
	</g>
	<path fill="#03A8DD" d="M103.4,39.9c-0.4-0.4-0.9-0.8-1.4-1.3c-3.1-2.8-6.6-5.1-10.3-6.7c-5-2.2-10.3-3.4-15.7-3.4
		c-5.2,0-10.4,1.1-15.3,3.2c-3.6,1.6-7.1,3.7-10.2,6.5c-0.6,0.5-1.3,1.1-1.8,1.7c-15.1,15.1-15.1,39.6,0,54.7l15.5,15.5l4.2,4.2
		l7.6,7.6l7.7-7.7L88,110l15.4-15.4C118.5,79.5,118.5,55,103.4,39.9z M75.8,87.2c-11.1,0-20.2-9-20.2-20.2c0-2.3,0.4-4.6,1.1-6.6
		C55.7,58.9,55,57,55,55c0-5.2,4.3-9.5,9.5-9.5c2.2,0,4.3,0.8,5.9,2.1c1.7-0.5,3.4-0.7,5.3-0.7c11.1,0,20.2,9,20.2,20.2
		C95.9,78.2,86.9,87.2,75.8,87.2z"/>
	<path fill="#1D4077" d="M70.5,47.6c2.2,1.7,3.6,4.4,3.6,7.4c0,5.2-4.3,9.5-9.5,9.5c-3.2,0-6.1-1.6-7.8-4.1
		c-0.7,2.1-1.1,4.3-1.1,6.6c0,11.1,9,20.2,20.2,20.2c11.1,0,20.2-9,20.2-20.2c0-11.1-9-20.2-20.2-20.2
		C73.9,46.9,72.2,47.1,70.5,47.6z M80.7,53.5c2.6,0,4.7,2.1,4.7,4.7c0,2.6-2.1,4.7-4.7,4.7c-2.6,0-4.7-2.1-4.7-4.7
		C76,55.6,78.1,53.5,80.7,53.5z"/>
</g>
</svg>
